<?xml version="1.0" standalone="no"?>
<!DOCTYPE svg PUBLIC "-//W3C//DTD SVG 20010904//EN"
 "http://www.w3.org/TR/2001/REC-SVG-20010904/DTD/svg10.dtd">
<svg width="16" height="16" viewBox="0 0 16 16" fill="none" xmlns="http://www.w3.org/2000/svg">
<g clip-path="url(#clip0)">
<path d="M14.5712 14.2857C14.9309 14.2857 15.2425 14.167 15.5075 13.9325L10.9744 9.39926C10.8656 9.47714 10.7602 9.55287 10.6606 9.62488C10.3214 9.87482 10.0461 10.0699 9.83467 10.2096C9.62328 10.3497 9.34203 10.4925 8.99094 10.6382C8.63963 10.7842 8.31233 10.8569 8.00871 10.8569H7.99982H7.99094C7.68729 10.8569 7.35999 10.7842 7.0087 10.6382C6.65741 10.4925 6.37616 10.3497 6.16498 10.2096C5.95359 10.0699 5.67841 9.87485 5.339 9.62488C5.24442 9.55554 5.13952 9.47946 5.02611 9.39804L0.492188 13.9325C0.757085 14.167 1.06892 14.2857 1.42855 14.2857H14.5712Z" fill="#ACACAC"/>
<path d="M0.901882 6.54471C0.562678 6.31856 0.261876 6.05956 0 5.76782V12.6648L3.99542 8.66934C3.19611 8.11132 2.16624 7.40392 0.901882 6.54471Z" fill="#ACACAC"/>
<path d="M15.1068 6.54471C13.8907 7.36784 12.8571 8.07646 12.0059 8.67094L15.9997 12.6649V5.76782C15.7436 6.05369 15.446 6.31252 15.1068 6.54471Z" fill="#ACACAC"/>
<path d="M14.5711 1.71426H1.42848C0.969972 1.71426 0.617464 1.86909 0.370519 2.17844C0.123371 2.48792 0 2.87497 0 3.33914C0 3.71408 0.16372 4.12033 0.491014 4.55801C0.818308 4.99551 1.16658 5.33916 1.53564 5.58913C1.73797 5.73208 2.34811 6.15625 3.36607 6.8615C3.91559 7.2423 4.39348 7.57422 4.80414 7.86064C5.15418 8.10453 5.45606 8.31575 5.7053 8.49103C5.73391 8.5111 5.77891 8.54329 5.83863 8.58599C5.90297 8.63221 5.9844 8.69086 6.08485 8.76339C6.27829 8.90329 6.43898 9.01638 6.56697 9.10277C6.69479 9.18919 6.84965 9.28572 7.03132 9.39291C7.21285 9.49996 7.38406 9.58045 7.54476 9.63399C7.70549 9.6875 7.85428 9.71434 7.99115 9.71434H8.00004H8.00893C8.14578 9.71434 8.2946 9.6875 8.45536 9.63399C8.61603 9.58045 8.7871 9.50013 8.96877 9.39291C9.15026 9.28572 9.30492 9.18899 9.43314 9.10277C9.56113 9.01638 9.72183 8.90332 9.9153 8.76339C10.0155 8.69086 10.097 8.63218 10.1613 8.58613C10.2211 8.54326 10.266 8.51128 10.2948 8.49103C10.489 8.35592 10.7916 8.14558 11.1984 7.86311C11.9386 7.3488 13.0287 6.59181 14.4734 5.58913C14.9079 5.28565 15.2709 4.91943 15.5626 4.49099C15.8538 4.06255 15.9998 3.61313 15.9998 3.14289C15.9998 2.75 15.8583 2.41382 15.5758 2.13382C15.293 1.85416 14.958 1.71426 14.5711 1.71426Z" fill="#ACACAC"/>
</g>
<defs>
<clipPath id="clip0">
<rect width="16" height="16" fill="#ACACAC"/>
</clipPath>
</defs>
</svg>
