<?xml version="1.0" standalone="no"?>
<!DOCTYPE svg PUBLIC "-//W3C//DTD SVG 20010904//EN"
 "http://www.w3.org/TR/2001/REC-SVG-20010904/DTD/svg10.dtd">
<svg width="16" height="16" viewBox="0 0 16 16" fill="none" xmlns="http://www.w3.org/2000/svg">
<g clip-path="url(#clip0)">
<path d="M14.0468 1.91187H1.95655C0.877302 1.91187 0 2.78917 0 3.86842V12.1316C0 13.2109 0.877302 14.0882 1.95655 14.0882H14.0435C15.1227 14.0882 16 13.2109 16 12.1316V3.87173C16.0033 2.79248 15.126 1.91187 14.0468 1.91187ZM15.1095 12.1316C15.1095 12.7176 14.6327 13.1943 14.0468 13.1943H1.95655C1.37058 13.1943 0.893855 12.7176 0.893855 12.1316V3.87173C0.893855 3.28575 1.37058 2.80903 1.95655 2.80903H14.0435C14.6294 2.80903 15.1061 3.28575 15.1061 3.87173V12.1316H15.1095Z" fill="white"/>
<path d="M10.0906 7.89741L14.0037 4.38819C14.1858 4.22266 14.2023 3.94126 14.0368 3.75587C13.8713 3.57379 13.5899 3.55723 13.4045 3.72276L8.00826 8.56614L6.95549 7.62594C6.95218 7.62263 6.94887 7.61932 6.94887 7.61601C6.9257 7.59283 6.90253 7.57297 6.87604 7.55311L2.59216 3.71945C2.40677 3.55392 2.12537 3.57048 1.95984 3.75587C1.79431 3.94126 1.81086 4.22266 1.99626 4.38819L5.9557 7.9272L2.01281 11.6185C1.83404 11.7873 1.82411 12.0687 1.99294 12.2508C2.08233 12.3435 2.20151 12.3932 2.32069 12.3932C2.42994 12.3932 2.53919 12.3534 2.62526 12.274L6.62775 8.52973L7.71362 9.49973C7.79969 9.57587 7.90563 9.61229 8.01157 9.61229C8.11751 9.61229 8.22675 9.57256 8.30952 9.49642L9.42518 8.49662L13.4045 12.2773C13.4906 12.3601 13.6031 12.3998 13.7124 12.3998C13.8316 12.3998 13.9474 12.3534 14.0368 12.2608C14.2057 12.082 14.199 11.7973 14.0203 11.6284L10.0906 7.89741Z" fill="white"/>
</g>
<defs>
<clipPath id="clip0">
<rect width="16" height="16" fill="white"/>
</clipPath>
</defs>
</svg>
