<svg width="18" height="21" viewBox="0 0 18 21" fill="none" xmlns="http://www.w3.org/2000/svg">
<path d="M15.6649 6.48113C15.3681 6.48113 15.0855 6.54307 14.8288 6.65436C14.5168 5.86584 13.7514 5.30683 12.8583 5.30683C12.5266 5.30683 12.2123 5.38404 11.9325 5.52135C11.5783 4.83854 10.8685 4.37095 10.0518 4.37095C9.81177 4.37095 9.58126 4.41189 9.36589 4.48635V2.13542C9.36596 0.958007 8.4146 0 7.24511 0C6.07576 0 5.12447 0.958007 5.12447 2.13542V10.595L3.59707 8.84755C3.58639 8.8356 3.5755 8.82386 3.56419 8.81262C3.16314 8.41128 2.62937 8.18877 2.06124 8.18601C2.05757 8.18601 2.0541 8.18601 2.05043 8.18601C1.48364 8.18601 0.952986 8.40485 0.555261 8.80286C-0.146009 9.50434 -0.184827 10.5456 0.449059 11.66C1.26961 13.1017 2.16158 14.4611 2.94861 15.6606C3.52374 16.5373 4.06705 17.3652 4.46421 18.0498C4.80863 18.6439 5.72286 20.5706 5.7322 20.59C5.85084 20.8404 6.1032 21 6.38008 21H15.4496C15.7612 21 16.0371 20.799 16.1326 20.5026C16.3017 19.9766 17.7857 15.3128 17.7857 13.5117V8.61676C17.7855 7.43907 16.8343 6.48113 15.6649 6.48113ZM14.9791 8.61669C14.9791 8.23006 15.2868 7.91556 15.6649 7.91556C16.0433 7.91556 16.351 8.23006 16.351 8.61669V13.5117C16.351 14.7086 15.4311 17.9264 14.9235 19.5654H6.83239C6.535 18.9466 5.97762 17.8003 5.70505 17.3302C5.28809 16.6112 4.73424 15.7672 4.14794 14.8735C3.37257 13.692 2.4939 12.3527 1.69576 10.9506C1.48746 10.5842 1.29655 10.0904 1.5699 9.81701C1.69739 9.68924 1.86906 9.62249 2.05431 9.62051C2.23511 9.62143 2.40516 9.68959 2.53547 9.81291L5.30181 12.9774C5.49837 13.2024 5.81429 13.2819 6.09386 13.1769C6.37372 13.0718 6.55904 12.8042 6.55904 12.5054V2.13542C6.55904 1.74886 6.86683 1.4345 7.24518 1.4345C7.6236 1.4345 7.93146 1.74886 7.93146 2.13542V8.83213C7.93146 9.22823 8.25268 9.54938 8.64871 9.54938C9.04474 9.54938 9.36596 9.22823 9.36596 8.83213V6.50616C9.36596 6.11982 9.67368 5.80553 10.0519 5.80553C10.4302 5.80553 10.738 6.11982 10.738 6.50616V9.76765C10.738 10.164 11.0591 10.485 11.4551 10.485C11.8512 10.485 12.1725 10.164 12.1725 9.76765V7.44225C12.1725 7.05569 12.4802 6.74126 12.8584 6.74126C13.2368 6.74126 13.5447 7.05569 13.5447 7.44225V10.704C13.5447 11.1 13.8658 11.4213 14.2619 11.4213C14.6581 11.4213 14.9792 11.1 14.9792 10.704V8.61669H14.9791Z" fill="white"/>
</svg>
