<?xml version="1.0" standalone="no"?>
<!DOCTYPE svg PUBLIC "-//W3C//DTD SVG 20010904//EN"
 "http://www.w3.org/TR/2001/REC-SVG-20010904/DTD/svg10.dtd">
<svg width="21" height="20" viewBox="0 0 21 20" fill="none" xmlns="http://www.w3.org/2000/svg">
<path d="M19.6194 17.4239L16.7359 14.5462C16.4607 14.2711 16.086 14.1423 15.723 14.1598L14.3354 12.7722C16.6978 9.64871 16.4578 5.18146 13.6123 2.33312C10.5006 -0.778683 5.45081 -0.778683 2.33901 2.33898C-0.778692 5.45664 -0.778692 10.5006 2.33315 13.6124C5.18153 16.4608 9.64874 16.6979 12.7723 14.3355L14.1598 15.7231C14.1423 16.086 14.2711 16.4608 14.5463 16.736L17.4239 19.6136C17.9391 20.1288 18.7793 20.1288 19.2945 19.6136L19.6136 19.2945C20.1347 18.7793 20.1347 17.945 19.6194 17.4239ZM11.8881 11.8882C9.72773 14.0486 6.21779 14.0544 4.05737 11.894C1.89695 9.73359 1.89695 6.22951 4.06323 4.0632C6.22365 1.90278 9.73362 1.89692 11.894 4.05734C14.0545 6.21776 14.0457 9.72188 11.8881 11.8882Z" fill="white"/>
<path d="M10.1443 7.14286H8.8387V5.83724C8.8387 5.36595 8.45814 4.98535 7.99271 4.98535H7.98394C7.51847 4.98535 7.13794 5.36591 7.13794 5.83724V7.14286H5.83232C5.36103 7.14286 4.98047 7.52343 4.98047 7.9889V7.99476C4.98047 8.46023 5.36103 8.84076 5.83232 8.84076H7.13794V10.1464C7.13794 10.6177 7.5185 10.9983 7.98394 10.9983H7.9898C8.45523 10.9983 8.8358 10.6177 8.8358 10.1464V8.84076H10.1414C10.6127 8.84076 10.9933 8.46019 10.9933 7.99476V7.9889C10.9991 7.52343 10.6186 7.14286 10.1443 7.14286Z" fill="white"/>
</svg>
